<mxfile host="app.diagrams.net" modified="2022-01-12T05:38:48.858Z" agent="5.0 (Macintosh; Intel Mac OS X 10_15_7) AppleWebKit/537.36 (KHTML, like Gecko) Chrome/97.0.4692.71 Safari/537.36" etag="qak45sWSLdFfiuCwRijQ" version="14.9.3" type="github">
  <diagram name="Page-1" id="e7e014a7-5840-1c2e-5031-d8a46d1fe8dd">
    <mxGraphModel dx="1298" dy="752" grid="1" gridSize="10" guides="1" tooltips="1" connect="1" arrows="1" fold="1" page="1" pageScale="1" pageWidth="1169" pageHeight="826" background="none" math="0" shadow="0">
      <root>
        <mxCell id="0" />
        <mxCell id="1" parent="0" />
        <mxCell id="L-QgVrxXDuTGMFpf5FV9-42" value="" style="shape=ext;double=1;rounded=1;whiteSpace=wrap;html=1;shadow=0;direction=south;" vertex="1" parent="1">
          <mxGeometry x="260" y="260" width="80" height="120" as="geometry" />
        </mxCell>
      </root>
    </mxGraphModel>
  </diagram>
</mxfile>
